<?xml version="1.0" encoding="UTF-8"?>
<svg version="1.1" xmlns="http://www.w3.org/2000/svg" width="937" height="937">
<path d="M0 0 C1.11922505 -0.00611329 1.11922505 -0.00611329 2.26106071 -0.01235008 C6.23368921 -0.03314757 10.20628413 -0.04745965 14.17895508 -0.05688477 C17.39106961 -0.06562009 20.60273376 -0.08619997 23.81469727 -0.1184082 C45.74034844 -0.33335323 66.80349465 0.92418185 88.49609375 4.23828125 C90.69642886 4.56298119 92.89678574 4.8875336 95.09716797 5.21191406 C168.13408811 16.03789385 239.62388303 46.91358658 298.49609375 91.23828125 C299.09454102 91.68510254 299.69298828 92.13192383 300.30957031 92.59228516 C308.6439409 98.82537555 316.61750903 105.44458186 324.49609375 112.23828125 C325.2128125 112.85316406 325.92953125 113.46804687 326.66796875 114.1015625 C328.6263056 115.79689957 330.5634266 117.51374749 332.49609375 119.23828125 C333.26953125 119.91890625 334.04296875 120.59953125 334.83984375 121.30078125 C342.23579318 127.93163247 349.27824558 134.91221791 356.30859375 141.92578125 C357.05811813 142.67142334 357.05811813 142.67142334 357.82278442 143.43212891 C363.59960321 149.18537078 369.24590599 154.99562557 374.49609375 161.23828125 C375.04160889 161.88240967 375.58712402 162.52653809 376.14916992 163.19018555 C429.89669126 227.05119228 466.15083312 302.53744963 481.80859375 384.61328125 C482.03901367 385.81001465 482.26943359 387.00674805 482.50683594 388.23974609 C483.09850938 391.48439291 483.64283211 394.7283009 484.14553833 397.98751831 C484.38606044 399.53180554 484.63682855 401.07452141 484.89620972 402.61575317 C488.3113322 423.35806567 487.99081922 444.25299359 487.94213867 465.21020508 C487.93296068 469.34517685 487.93986074 473.47958326 487.96264648 477.61450195 C488.50282745 576.18401352 455.54106225 673.35167819 389.49609375 759.23828125 C388.70074219 760.2334375 387.90539062 761.22859375 387.0859375 762.25390625 C384.91323265 764.93625792 382.7109119 767.59063773 380.49609375 770.23828125 C379.68140625 771.22699219 378.86671875 772.21570313 378.02734375 773.234375 C364.84174538 789.13834883 350.5154539 805.00250329 334.71484375 818.359375 C332.88005052 819.91313476 331.07551078 821.49037358 329.27734375 823.0859375 C320.01807289 831.26973719 310.41794858 838.87576633 300.49609375 846.23828125 C299.77019043 846.77984863 299.04428711 847.32141602 298.29638672 847.87939453 C287.04579836 856.24712835 275.50090596 863.99482533 263.49609375 871.23828125 C262.52671875 871.82367676 261.55734375 872.40907227 260.55859375 873.01220703 C208.22846358 904.38881128 151.81438167 923.84075224 91.91162109 934.06933594 C91.09860535 934.20845901 90.2855896 934.34758209 89.44793701 934.49092102 C87.91649796 934.75136747 86.38449413 935.0085211 84.85186768 935.2618866 C81.06004179 935.87316875 81.06004179 935.87316875 77.49609375 937.23828125 C76.1423697 937.33808637 74.78393514 937.37763639 73.42655945 937.38545227 C72.14744942 937.39618523 72.14744942 937.39618523 70.84249878 937.40713501 C69.43485764 937.41116837 69.43485764 937.41116837 67.9987793 937.4152832 C66.51739723 937.42514 66.51739723 937.42514 65.00608826 937.43519592 C61.71499552 937.45500222 58.42394917 937.4666236 55.1328125 937.4765625 C54.00139139 937.48063803 52.86997028 937.48471355 51.70426369 937.48891258 C45.68622647 937.50982963 39.66821225 937.5240925 33.65014648 937.53344727 C28.72065531 937.54221932 23.79145416 937.56287325 18.86206055 937.5949707 C-33.2342128 937.92694174 -33.2342128 937.92694174 -57.50390625 933.23828125 C-59.00600518 932.9797387 -60.50879617 932.7251634 -62.01245117 932.47583008 C-65.50518815 931.87467781 -68.97126561 931.20719485 -72.44140625 930.48828125 C-73.66335693 930.23788086 -74.88530762 929.98748047 -76.14428711 929.72949219 C-151.08578324 913.96443338 -221.68699719 880.35343211 -280.50390625 831.23828125 C-281.10734863 830.73538574 -281.71079102 830.23249023 -282.33251953 829.71435547 C-298.33574598 816.32606417 -314.3276017 802.11095892 -327.84765625 786.171875 C-329.76376202 783.9349119 -331.75903481 781.78024547 -333.75390625 779.61328125 C-338.77374432 774.04320798 -343.36047554 768.18121066 -347.94140625 762.25097656 C-349.62782451 760.07865905 -351.3302761 757.91957301 -353.03515625 755.76171875 C-359.56998412 747.46986878 -365.8133733 739.1403031 -371.50390625 730.23828125 C-372.33679818 728.97931358 -373.17155815 727.72158048 -374.0078125 726.46484375 C-411.18307531 670.30603969 -434.88564084 607.41360989 -445.81640625 541.11328125 C-446.03744019 539.78611084 -446.03744019 539.78611084 -446.26293945 538.43212891 C-446.73490346 535.37251926 -447.13075086 532.31162757 -447.50390625 529.23828125 C-447.59004181 528.54263062 -447.67617737 527.84697998 -447.7649231 527.13024902 C-449.74399799 510.55191783 -449.84697339 493.9881292 -449.81958008 477.31933594 C-449.81496662 474.27947114 -449.82182116 471.24000822 -449.84008789 468.20019531 C-450.28747283 393.00647067 -431.92123042 320.06972144 -397.50390625 253.23828125 C-397.1265332 252.49755371 -396.74916016 251.75682617 -396.36035156 250.99365234 C-377.52226869 214.06576425 -353.09735337 180.09729237 -324.77563477 149.85131836 C-322.17537809 147.07230263 -319.65097048 144.25079956 -317.17578125 141.359375 C-313.39244829 137.01606532 -309.28552684 133.09109478 -305.06640625 129.17578125 C-304.35419922 128.50740234 -303.64199219 127.83902344 -302.90820312 127.15039062 C-298.19332625 122.74384357 -293.38187881 118.46291332 -288.50390625 114.23828125 C-287.5396875 113.39265625 -286.57546875 112.54703125 -285.58203125 111.67578125 C-272.86019899 100.71110814 -259.29858873 90.80401246 -245.50390625 81.23828125 C-244.91843018 80.82739258 -244.3329541 80.41650391 -243.72973633 79.99316406 C-179.17581181 34.80842921 -102.29540716 9.92001001 -24.50390625 1.23828125 C-23.20606201 1.06321045 -21.90821777 0.88813965 -20.57104492 0.70776367 C-13.73886401 -0.04400312 -6.86519752 0.03216469 0 0 Z " fill="#E81009" transform="translate(449.50390625,-0.23828125)"/>
<path d="M0 0 C7.79106171 7.08278337 12.96977201 16.40018933 18.1875 25.4375 C23.78968537 35.02940363 29.6276277 44.44340662 35.60205078 53.80664062 C41.137794 62.49213086 46.57544457 71.21907557 51.75 80.125 C57.32105284 89.69760716 63.3067483 98.99847871 69.28466797 108.3203125 C71.85073226 112.32901185 74.39662433 116.35030102 76.9375 120.375 C77.65655518 121.51364502 77.65655518 121.51364502 78.39013672 122.67529297 C83.09238064 130.13097744 87.7586728 137.60908298 92.42675781 145.08618164 C98.2513059 154.41187722 104.11920745 163.70970518 110 173 C117.18029382 184.34320686 124.32410438 195.70823745 131.43286133 207.09643555 C135.27096625 213.24220902 139.12495051 219.37746117 143 225.5 C147.46008833 232.54845859 151.89328384 239.61334382 156.3125 246.6875 C156.94212646 247.69538574 157.57175293 248.70327148 158.22045898 249.74169922 C161.41465139 254.85646834 164.60655609 259.97265782 167.796875 265.08984375 C184.27076658 291.51464553 184.27076658 291.51464553 201.3581543 317.54443359 C201.82390869 318.23617676 202.28966309 318.92791992 202.76953125 319.640625 C203.17792236 320.24422852 203.58631348 320.84783203 204.00708008 321.46972656 C207.67752934 327.12656846 206.63586956 334.8512965 205.3515625 341.2109375 C202.00114049 352.35037479 194.58268509 361.82065457 184.328125 367.47265625 C172.55858881 373.0485553 160.61795452 375.31743615 147.8125 371.4375 C132.94319477 365.79947238 125.75401934 356.85748605 118.125 343.4375 C117.50786133 342.36701416 116.89072266 341.29652832 116.25488281 340.19360352 C113.70084897 335.75696057 111.16735977 331.30921397 108.6640625 326.84375 C102.62059058 316.0888367 95.83492889 305.95674482 88.68383789 295.91430664 C78.91421247 282.19156146 69.79337798 268.20051605 61.3977356 253.59158325 C61.06023285 253.00448578 60.7227301 252.41738831 60.375 251.8125 C60.0345163 251.21984344 59.69403259 250.62718689 59.3432312 250.01657104 C52.48900661 238.13439699 44.98111642 226.72375972 37.375 215.3125 C28.42774478 201.88915703 19.85602072 188.42198198 12.015625 174.3203125 C8.9056804 168.73193668 5.48766463 163.35874606 2 158 C-2.04312387 163.95731103 -5.88352637 169.99936463 -9.5625 176.1875 C-10.07643311 177.04915771 -10.59036621 177.91081543 -11.11987305 178.79858398 C-12.20409767 180.61797619 -13.28717087 182.43805501 -14.36914062 184.25878906 C-15.95428506 186.92316058 -17.54687684 189.58295602 -19.140625 192.2421875 C-25.16890395 202.33531276 -31.00192848 212.52286805 -36.6875 222.8125 C-45.14484497 238.10477133 -53.82970707 253.02066675 -63.56054688 267.54589844 C-68.2129987 274.55443148 -71.96524643 281.50688622 -76 289 C-33.76 289 8.48 289 52 289 C50.51090217 292.72274457 49.18679482 295.51158062 47.0859375 298.82421875 C46.498125 299.75685547 45.9103125 300.68949219 45.3046875 301.65039062 C44.66789062 302.65263672 44.03109375 303.65488281 43.375 304.6875 C42.00696202 306.85753699 40.63980399 309.02812892 39.2734375 311.19921875 C38.9210199 311.7584201 38.56860229 312.31762146 38.20550537 312.89376831 C33.82774983 319.8471353 29.53817373 326.85469342 25.24755859 333.86206055 C24.01901567 335.86461534 22.7617065 337.84974914 21.47921753 339.81819153 C19.44991689 343.06667677 17.87728235 346.41402588 16.29779053 349.90136719 C8.42658169 366.09782724 8.42658169 366.09782724 1.04600525 369.26937866 C-6.83707329 370.90829462 -14.77283394 370.22110946 -22.74213314 369.58157349 C-26.22653124 369.33725599 -29.7141379 369.26008484 -33.2053833 369.171875 C-43.55770756 368.88078345 -53.89559738 368.34659631 -64.23376465 367.73809814 C-74.3769896 367.14253802 -84.51153431 366.66346045 -94.671875 366.5 C-95.36211887 366.48808121 -96.05236275 366.47616241 -96.7635231 366.46388245 C-113.51940584 365.78040196 -113.51940584 365.78040196 -128.49072266 371.96240234 C-135.49707353 378.81939362 -138.75562666 387.70228662 -141.56896973 396.88769531 C-143.71087519 403.56150451 -147.68707877 409.17386451 -151.5 415 C-152.91260349 417.28186599 -154.29967279 419.57786514 -155.6875 421.875 C-156.079375 422.51953125 -156.47125 423.1640625 -156.875 423.828125 C-161.1338954 430.85530241 -165.31455996 437.92892564 -169.5 445 C-174.13570862 452.83021861 -178.77773333 460.65590919 -183.48828125 468.44140625 C-183.84853897 469.03861481 -184.20879669 469.63582336 -184.57997131 470.25112915 C-186.35319519 473.18370617 -188.14616761 476.10035841 -189.98364258 478.99316406 C-194.03895198 485.44613132 -197.3390567 491.68828481 -199.91943359 498.87182617 C-205.06259774 508.69866437 -205.06259774 508.69866437 -210 512 C-216.33216974 513.59423725 -223.06214265 512.91597441 -229.51953125 512.609375 C-231.31225992 512.56041088 -233.1051171 512.51593423 -234.89807129 512.47607422 C-239.26857893 512.36919302 -243.63286501 512.20131908 -248 512 C-248.18610776 499.59482045 -248.32788451 487.18997793 -248.41449738 474.78368187 C-248.45608698 469.02162417 -248.51241654 463.26052793 -248.60351562 457.49902344 C-248.6910231 451.92923282 -248.73839589 446.36036154 -248.75901794 440.78993607 C-248.77369627 438.6745521 -248.80235842 436.55921328 -248.84584045 434.44422531 C-249.11157496 420.97176372 -248.1615811 412.01078412 -240 401 C-239.13283087 399.65389973 -238.27095393 398.30435141 -237.41796875 396.94921875 C-236.68191406 395.87285156 -235.94585937 394.79648437 -235.1875 393.6875 C-234.32725837 392.41464777 -233.46791591 391.14118749 -232.609375 389.8671875 C-231.9606543 388.9076416 -231.9606543 388.9076416 -231.29882812 387.92871094 C-217.47852489 367.40608019 -204.90187665 346.06311905 -192.44720459 324.69363403 C-187.06574545 315.461882 -181.57052949 306.30629926 -176 297.1875 C-171.25106425 289.41283754 -166.56864574 281.61972079 -162.16235352 273.64453125 C-158.88683704 267.73373068 -155.40734034 261.95285511 -151.91699219 256.16699219 C-147.72355219 249.21436759 -143.57266822 242.2374302 -139.4375 235.25 C-138.07165104 232.94268674 -136.70577299 230.63539073 -135.33984375 228.328125 C-134.99054306 227.73804153 -134.64124237 227.14795807 -134.28135681 226.53999329 C-130.4304176 220.03567337 -126.57050259 213.53668874 -122.71038818 207.03781128 C-115.09617864 194.21851719 -107.48924464 181.39494881 -99.890625 168.56640625 C-97.27825871 164.15623311 -94.66349471 159.74749454 -92.046875 155.33984375 C-84.80511534 143.13753648 -77.59558491 130.91742534 -70.42953491 118.67056274 C-65.27685976 109.86515364 -60.08772816 101.08253717 -54.875 92.3125 C-45.27501046 76.14149531 -35.81291319 59.89348791 -26.68164062 43.45263672 C-21.40465215 33.95198922 -16.01418719 24.54116179 -10.375 15.25 C-9.79484131 14.29134033 -9.21468262 13.33268066 -8.61694336 12.3449707 C-5.9646897 8.01369932 -3.3247899 3.85999998 0 0 Z " fill="#F3EFE5" transform="translate(389,223)"/>
<path d="M0 0 C38.61 0 77.22 0 117 0 C117.06621621 47.16054191 117.12157795 94.32103975 117.15319599 141.4816149 C117.15694782 147.05748619 117.16083081 152.63335738 117.16479492 158.20922852 C117.16558185 159.31921931 117.16636878 160.4292101 117.16717956 161.57283697 C117.1802106 179.51297621 117.20385168 197.45308641 117.23145839 215.39320847 C117.25957679 233.82042028 117.27618983 252.24761695 117.28226548 270.67484933 C117.28636861 282.03271988 117.29929765 293.39050837 117.3237494 304.74835364 C117.33968614 312.55151248 117.34438252 320.35462929 117.34050413 328.1578032 C117.33859486 332.65047711 117.34138722 337.14300825 117.35761642 341.63565636 C117.41829562 359.31565571 117.32771572 376.56198876 114 394 C113.70460913 395.68063848 113.41187508 397.36174606 113.12178326 399.0433073 C109.84224704 418.02283839 102.19629717 436.1569313 93 453 C92.67676758 453.60489258 92.35353516 454.20978516 92.02050781 454.83300781 C87.39587605 463.46105215 82.12976857 471.36274762 76 479 C75.38366699 479.77077881 75.38366699 479.77077881 74.75488281 480.55712891 C55.09875971 504.96585931 31.75168666 522.53304374 3 535 C1.95070313 535.47050781 0.90140625 535.94101562 -0.1796875 536.42578125 C-29.23261456 548.61291819 -61.86174021 548.4967559 -92.81201172 548.3225708 C-96.10518898 548.3089674 -99.3982327 548.31434861 -102.69142532 548.31969929 C-105.88966094 548.32303983 -109.08781374 548.31641385 -112.28603363 548.30657005 C-113.79942136 548.30274791 -115.31281831 548.30155731 -116.82621002 548.3031559 C-118.92501045 548.30352809 -121.02334089 548.29087676 -123.12207031 548.2746582 C-124.30939758 548.27005081 -125.49672485 548.26544342 -126.72003174 548.26069641 C-130.83918948 547.93330006 -134.65866079 547.40653463 -137.59228516 544.33032227 C-137.98722168 543.66572998 -138.3821582 543.0011377 -138.7890625 542.31640625 C-139.24885498 541.56415771 -139.70864746 540.81190918 -140.18237305 540.03686523 C-140.65843994 539.22032471 -141.13450684 538.40378418 -141.625 537.5625 C-142.68584335 535.81488888 -143.74705084 534.06749877 -144.80859375 532.3203125 C-145.34210449 531.42860352 -145.87561523 530.53689453 -146.42529297 529.61816406 C-148.78894684 525.68826884 -151.23428686 521.81189936 -153.6875 517.9375 C-154.40993896 516.79099976 -154.40993896 516.79099976 -155.14697266 515.62133789 C-159.52265925 508.69820101 -164.00746107 501.84765901 -168.5 495 C-173.69828052 487.07441991 -178.86997101 479.13496518 -183.9375 471.125 C-184.42734375 470.35285156 -184.9171875 469.58070313 -185.421875 468.78515625 C-186.09283203 467.71974609 -186.09283203 467.71974609 -186.77734375 466.6328125 C-187.35343384 465.71846436 -187.35343384 465.71846436 -187.94116211 464.78564453 C-189.05993063 462.89893183 -190.0280055 460.96558922 -191 459 C-189.92941345 458.99413376 -188.8588269 458.98826752 -187.75579834 458.98222351 C-177.57831604 458.92456637 -167.40103865 458.85158842 -157.22376633 458.76428509 C-151.99375756 458.71989484 -146.76382111 458.6805733 -141.53369141 458.65356445 C-136.46955497 458.62721414 -131.40570176 458.58659833 -126.34174347 458.53681374 C-124.42687807 458.52035631 -122.51196394 458.5087126 -120.59703827 458.50238609 C-104.28156744 458.44312574 -86.84366335 458.07994576 -71.6875 451.375 C-70.86612549 451.02655029 -70.04475098 450.67810059 -69.19848633 450.3190918 C-40.01864338 437.57755804 -18.82175368 414.74831047 -6.52734375 385.49609375 C-1.54510181 372.49578314 -0.70014828 359.46213504 -0.7215271 345.61148071 C-0.71651139 344.11034198 -0.71063192 342.60920594 -0.70397437 341.10807359 C-0.68831439 337.02372218 -0.6847515 332.93943981 -0.68332577 328.85506201 C-0.67960699 324.43534264 -0.66443941 320.01566008 -0.65071106 315.59596252 C-0.62851172 307.95199602 -0.61345454 300.30804274 -0.60334396 292.66405106 C-0.58871557 281.61232916 -0.56316723 270.56065336 -0.53501268 259.50895862 C-0.48962004 241.5753206 -0.45297422 223.6416759 -0.421875 205.70800781 C-0.39165855 188.29425894 -0.35729412 170.88052634 -0.31738281 153.46679688 C-0.31492126 152.3921696 -0.31245972 151.31754233 -0.30992357 150.21035059 C-0.29754837 144.81888959 -0.28509195 139.42742878 -0.27259517 134.03596807 C-0.16914016 89.35733132 -0.08151956 44.67868321 0 0 Z " fill="#000000" transform="translate(634,187)"/>
<path d="M0 0 C2.01012506 -0.01877405 4.02023294 -0.03947925 6.03031921 -0.06202698 C10.24137253 -0.09782989 14.45073179 -0.09857911 18.66186523 -0.0769043 C24.04450101 -0.05364022 29.41978293 -0.13491286 34.80112934 -0.2450552 C38.95296934 -0.31531942 43.10305346 -0.32061832 47.25539207 -0.30763435 C49.23816003 -0.31085596 51.22102461 -0.33607991 53.20321083 -0.3842144 C68.25134396 -0.70646909 68.25134396 -0.70646909 72.51717567 2.73813438 C75.83061069 6.53036464 77.78874966 10.80318616 79.82421875 15.37109375 C80.92199483 17.20488101 82.04260488 19.02557544 83.203125 20.8203125 C84.26664498 22.56499289 85.32778766 24.31112434 86.38671875 26.05859375 C86.97477295 27.02716309 87.56282715 27.99573242 88.16870117 28.99365234 C97.04795439 43.65439225 105.76766228 58.41119807 114.40625 73.21484375 C114.78713272 73.86693817 115.16801544 74.51903259 115.56044006 75.19088745 C117.39913321 78.33888061 119.23523488 81.48831314 121.06567383 84.64111328 C124.36161237 90.30070709 127.74311019 95.8564757 131.42529297 101.27392578 C133.86426434 104.93025459 136.08388891 108.71601964 138.32421875 112.49609375 C139.37043752 114.25039152 140.41734141 116.00428085 141.46484375 117.7578125 C142.00947266 118.66966309 142.55410156 119.58151367 143.11523438 120.52099609 C151.65052149 134.75541634 160.27118732 148.95270282 169.10546875 163.00390625 C174.21959048 171.14136133 179.22177102 179.33609971 184.14697266 187.58935547 C188.33021115 194.58451917 192.60534439 201.51971973 196.93286133 208.42651367 C197.94124748 210.04339449 198.9286978 211.67349379 199.89634705 213.31507874 C201.30195842 215.54321947 202.68307554 217.4830709 204.30926514 219.52764893 C214.06642753 232.62947321 213.14525418 246.96198835 212.83815813 262.55714726 C212.77486848 266.3231835 212.76971095 270.08933368 212.75790405 273.8558197 C212.72704602 280.96044958 212.64529872 288.06350725 212.54440916 295.16745037 C212.43192728 303.26662036 212.37747722 311.36587272 212.32745481 319.4656316 C212.22343684 336.10170024 212.04799432 352.73619519 211.82421875 369.37109375 C206.30164268 363.9135199 206.30164268 363.9135199 204.5703125 361.015625 C204.19729004 360.40291748 203.82426758 359.79020996 203.43994141 359.15893555 C203.05112793 358.50707275 202.66231445 357.85520996 202.26171875 357.18359375 C198.62000642 351.21557713 194.85688205 345.3558932 190.94921875 339.55859375 C184.71752182 330.27973639 178.74825502 320.84848631 172.82421875 311.37109375 C171.63672268 309.47395587 170.44922253 307.57682055 169.26171875 305.6796875 C164.79880409 298.5457061 160.34336455 291.40706258 155.88769531 284.26855469 C149.07674585 273.35794419 142.25703805 262.45357284 135.37768555 251.5859375 C131.37621902 245.25921352 127.41091827 238.9102756 123.44921875 232.55859375 C118.61187499 224.80505089 113.74095233 217.07453286 108.82421875 209.37109375 C103.26014216 200.65341065 97.7622419 191.89608894 92.2890625 183.12109375 C88.48633556 177.02566241 84.66678641 170.94148132 80.82421875 164.87109375 C73.77761723 153.73353202 66.79527651 142.55605476 59.82421875 131.37109375 C59.23930664 130.43378418 58.65439453 129.49647461 58.05175781 128.53076172 C52.00826196 118.84092042 45.98872161 109.14782542 40.33276367 99.22485352 C38.24287031 95.60308651 36.00252924 92.17831023 33.5625 88.78125 C29.06879349 82.44256152 25.25314082 75.72559832 21.38671875 68.99609375 C12.06755239 52.09607916 12.06755239 52.09607916 -0.17578125 37.37109375 C-9.18550082 50.732966 -17.1624054 64.64493284 -25.08203125 78.66748047 C-28.49200271 84.70342378 -31.92614987 90.72558648 -35.36328125 96.74609375 C-35.69699738 97.33093536 -36.0307135 97.91577698 -36.37454224 98.51834106 C-41.82061212 108.05800354 -47.37209528 117.53156152 -52.98046875 126.9765625 C-56.32487695 132.6119006 -59.62806277 138.27084014 -62.92578125 143.93359375 C-74.02558118 162.98116797 -85.12694437 182.02349127 -96.50488281 200.90673828 C-101.35178416 208.96397486 -106.11825013 217.06616027 -110.86328125 225.18359375 C-116.08018479 234.10756927 -121.33015547 243.00908662 -126.66455078 251.86352539 C-131.75039827 260.30994046 -136.76959927 268.79550711 -141.792099 277.2796936 C-142.1365657 277.8615744 -142.48103241 278.4434552 -142.8359375 279.04296875 C-143.18519791 279.63298676 -143.53445831 280.22300476 -143.89430237 280.8309021 C-147.7452934 287.33528155 -151.60523901 293.83433826 -155.46539307 300.33328247 C-161.76964041 310.94712233 -168.07036342 321.56303214 -174.36328125 332.18359375 C-175.01312988 333.28018311 -175.66297852 334.37677246 -176.33251953 335.5065918 C-179.58856786 341.00173201 -182.84262202 346.49804096 -186.09375 351.99609375 C-189.76097138 358.19626484 -193.43617856 364.39165906 -197.11529541 370.58477783 C-198.20731962 372.42421797 -199.29785894 374.26453248 -200.38818359 376.10498047 C-209.15210767 390.89090539 -218.07027197 405.51732934 -227.55078125 419.859375 C-232.02835246 426.63548153 -236.36595678 433.49954426 -240.69824219 440.36914062 C-241.24254883 441.22958984 -241.78685547 442.09003906 -242.34765625 442.9765625 C-242.82299805 443.73090576 -243.29833984 444.48524902 -243.78808594 445.26245117 C-245.17248945 447.36609176 -246.64355042 449.37325698 -248.17578125 451.37109375 C-249.92992486 449.61695014 -249.32157287 447.15138579 -249.33691406 444.76904297 C-249.34652161 443.57044647 -249.35612915 442.37184998 -249.36602783 441.13693237 C-249.37027771 439.8297525 -249.37452759 438.52257263 -249.37890625 437.17578125 C-249.38465807 435.82634478 -249.3904158 434.47690834 -249.3961792 433.12747192 C-249.40670304 430.29103209 -249.41253542 427.45462069 -249.41601562 424.61816406 C-249.42147824 420.99675587 -249.44545173 417.37572791 -249.47398758 413.7544384 C-249.49269225 410.96274759 -249.49782387 408.1711465 -249.4993515 405.37939835 C-249.50382511 403.39919931 -249.52244248 401.41904843 -249.5413208 399.43893433 C-249.52533229 392.95258973 -249.3872961 388.0611176 -246.17578125 382.37109375 C-245.76271729 381.60772705 -245.34965332 380.84436035 -244.92407227 380.05786133 C-244.30810181 379.04695435 -244.30810181 379.04695435 -243.6796875 378.015625 C-243.20998535 377.23928711 -242.7402832 376.46294922 -242.25634766 375.66308594 C-241.50490479 374.4357373 -241.50490479 374.4357373 -240.73828125 373.18359375 C-239.65358453 371.39326631 -238.56895082 369.60290069 -237.484375 367.8125 C-236.65655518 366.4514917 -236.65655518 366.4514917 -235.81201172 365.06298828 C-233.29571509 360.92322603 -230.7957835 356.77371731 -228.30078125 352.62109375 C-227.8109375 351.80600342 -227.32109375 350.99091309 -226.81640625 350.15112305 C-222.29865901 342.61351859 -217.8725317 335.02353158 -213.453125 327.42797852 C-206.10258165 314.79725456 -198.65274012 302.22567201 -191.19140625 289.66015625 C-189.81095483 287.33477962 -188.43077775 285.00924037 -187.05078125 282.68359375 C-186.70991486 282.10922577 -186.36904846 281.53485779 -186.01785278 280.94308472 C-181.26188292 272.92625852 -176.55874177 264.88133659 -171.90356445 256.80566406 C-168.14113096 250.28743491 -164.28390887 243.82988271 -160.39306641 237.38769531 C-158.06520081 233.53126333 -155.74512021 229.6701581 -153.42578125 225.80859375 C-152.92111328 224.96876953 -152.41644531 224.12894531 -151.89648438 223.26367188 C-148.69179569 217.92252406 -145.51833231 212.56392989 -142.36157227 207.19433594 C-136.97400229 198.03165866 -131.47345296 188.95234002 -125.85107422 179.93188477 C-122.01167776 173.75929865 -118.28855072 167.52801519 -114.62548828 161.24951172 C-112.25670713 157.19356451 -109.84132941 153.1742838 -107.36328125 149.18359375 C-102.06113402 140.62350063 -96.98502056 131.92968668 -91.87695312 123.25292969 C-90.23893927 120.47808532 -88.59198575 117.70879076 -86.94140625 114.94140625 C-80.52201559 104.16348418 -74.29540035 93.29523885 -68.19335938 82.33447266 C-64.5662971 75.82739354 -60.87291108 69.36993848 -57.0690918 62.96484375 C-53.25205118 56.5309541 -49.5281449 50.04474927 -45.80078125 43.55859375 C-41.12784146 35.44131921 -36.42308742 27.34564945 -31.61328125 19.30859375 C-30.9174292 18.14203247 -30.9174292 18.14203247 -30.20751953 16.9519043 C-29.3452589 15.51860289 -28.46199748 14.09759776 -27.55249023 12.69380188 C-26.11923735 10.43498259 -26.11923735 10.43498259 -25.31051636 8.0267334 C-20.78911712 -2.13717389 -9.49734712 -0.02688797 0 0 Z " fill="#010101" transform="translate(389.17578125,186.62890625)"/>
<path d="M0 0 C3.58209736 3.43645318 5.99822116 7.0828266 8.4375 11.375 C9.33715983 12.92452547 10.23690334 14.47400236 11.13671875 16.0234375 C12.55551759 18.48437152 13.97008156 20.94754463 15.37744141 23.41503906 C22.87561339 36.53881255 31.01040788 49.12902441 39.45291138 61.65579224 C46.91558875 72.73899049 53.93471298 83.98441578 60.59277344 95.57275391 C68.71658117 109.58505379 77.51230819 123.10021084 86.875 136.3125 C88.92056845 139.20560032 90.96231563 142.10134136 93 145 C93.43070801 145.61182129 93.86141602 146.22364258 94.30517578 146.85400391 C100.48333107 155.69080165 105.85697284 164.88351591 111.10205078 174.30126953 C114.53667068 180.45846634 118.09014313 186.51274119 121.8125 192.5 C125.54490855 198.5115431 129.01249874 204.59937306 132.28979492 210.86987305 C134.99636585 216.04347671 137.94353351 221.0280368 141 226 C142.02236022 227.70742 143.04318206 229.41576204 144.0625 231.125 C146.32445286 234.91481548 148.67614219 238.6316733 151.1171875 242.30859375 C152 244 152 244 152 247 C151.15462016 246.98948325 150.30924032 246.9789665 149.43824291 246.96813107 C128.8385392 246.71774514 108.23999381 246.56188414 87.63879681 246.51034451 C77.67579195 246.48315582 67.71487277 246.42435235 57.75268555 246.2902832 C49.06620453 246.17346339 40.38173429 246.11681565 31.694444 246.13146263 C27.09633372 246.13713855 22.50275957 246.11334617 17.90555382 246.01739311 C0.02893305 244.7811051 0.02893305 244.7811051 -16.57657051 249.64610863 C-20.43101928 253.49673801 -22.50989305 257.75148113 -24.21892166 262.87191391 C-25.45881374 266.25006045 -27.37616435 269.00363364 -29.36328125 271.99609375 C-30.68173869 274.14197023 -31.99818886 276.28908148 -33.3125 278.4375 C-33.97572266 279.51708984 -34.63894531 280.59667969 -35.32226562 281.70898438 C-38.72446239 287.25392699 -42.09795268 292.81479316 -45.43823242 298.3972168 C-48.60420227 303.67350326 -51.80491378 308.92881338 -55 314.1875 C-55.74422455 315.41267749 -56.48844652 316.63785655 -57.23266602 317.86303711 C-59.12019747 320.97014093 -61.00820008 324.0769582 -62.89630127 327.18371582 C-63.97128692 328.95274878 -65.04599549 330.72194975 -66.12060547 332.49121094 C-68.05887422 335.68206432 -69.99802865 338.87237748 -71.9375 342.0625 C-72.52208984 343.02502686 -73.10667969 343.98755371 -73.70898438 344.97924805 C-74.51625977 346.30629761 -74.51625977 346.30629761 -75.33984375 347.66015625 C-75.80769287 348.42980713 -76.27554199 349.19945801 -76.75756836 349.99243164 C-77.80404027 351.6833608 -78.896949 353.34542351 -80 355 C-82.29197121 355.36914349 -82.29197121 355.36914349 -85.21377563 355.36076355 C-86.31877914 355.36488754 -87.42378265 355.36901154 -88.56227112 355.3732605 C-89.78002731 355.36247467 -90.99778351 355.35168884 -92.25244141 355.34057617 C-93.5304512 355.34101425 -94.808461 355.34145233 -96.12519836 355.34190369 C-99.63542427 355.34276649 -103.14534433 355.32509503 -106.65549898 355.30418181 C-110.32169843 355.28546226 -113.98790443 355.28366831 -117.65414429 355.28010559 C-124.59921669 355.27077119 -131.54414789 355.24613866 -138.48915803 355.21605712 C-146.39471727 355.18255639 -154.30028315 355.16603802 -162.20589566 355.15097082 C-178.47067985 355.11959022 -194.73532192 355.06680278 -211 355 C-210.20586886 353.39938373 -209.41031659 351.79947249 -208.61416626 350.19985962 C-208.17129587 349.30883356 -207.72842548 348.4178075 -207.27213478 347.49978065 C-205.79159785 344.5904839 -204.17332563 341.80222303 -202.4609375 339.0234375 C-201.80802734 337.95738281 -201.15511719 336.89132812 -200.48242188 335.79296875 C-199.96893188 334.96031494 -199.96893188 334.96031494 -199.44506836 334.11083984 C-197.55558441 331.04576321 -195.6805005 327.97189321 -193.8046875 324.8984375 C-193.21533417 323.93354401 -193.21533417 323.93354401 -192.61407471 322.94915771 C-188.17679915 315.67186345 -183.83858034 308.33639496 -179.5 301 C-172.88598196 289.82264811 -166.19450358 278.69672507 -159.43164062 267.60888672 C-155.59221262 261.30648253 -151.7904306 254.9834536 -148.03125 248.6328125 C-147.61121704 247.92340515 -147.19118408 247.2139978 -146.75842285 246.48309326 C-144.72847893 243.05247045 -142.70244474 239.61960775 -140.68164062 236.18359375 C-139.93364177 234.91663831 -139.18559696 233.64971001 -138.4375 232.3828125 C-137.79683594 231.29371582 -137.15617187 230.20461914 -136.49609375 229.08251953 C-136.10618256 228.49381577 -135.71627136 227.905112 -135.31454468 227.29856873 C-133.83748235 224.86854716 -133.83748235 224.86854716 -132.7159729 221.44764709 C-130.93733173 217.1185226 -129.00844974 213.59092556 -125 211 C-117.1998224 208.87374188 -108.79550814 209.6988751 -100.80183029 210.09871483 C-96.59695724 210.30847806 -92.39468488 210.39677039 -88.18545532 210.46540833 C-76.9795327 210.66590572 -65.77915276 211.00780902 -54.58038104 211.45427257 C-47.21401302 211.74791467 -39.85351528 211.96795251 -32.48151267 212.05186063 C-28.98560442 212.09637102 -25.50602615 212.18863669 -22.01594162 212.40053368 C-9.21203733 213.2491109 -9.21203733 213.2491109 3 210 C9.49308959 203.99587377 13.06953617 196.08113096 16.56931686 188.09559059 C18.67645518 183.53634377 21.35084585 179.42456628 24.125 175.25 C25.09390599 173.73353082 26.06039281 172.21551068 27.0234375 170.6953125 C27.50522461 169.93766602 27.98701172 169.18001953 28.48339844 168.39941406 C31.26855564 163.99301918 34.00889373 159.55888476 36.75 155.125 C37.2567627 154.30547852 37.76352539 153.48595703 38.28564453 152.64160156 C42.53277394 145.76660372 46.7647256 138.8823209 51 132 C8.76 132 -33.48 132 -77 132 C-75.38566442 127.15699327 -73.62792416 123.33153367 -71 119.0625 C-70.40070679 118.07382935 -70.40070679 118.07382935 -69.78930664 117.06518555 C-67.49243556 113.31158758 -65.10188473 109.64300888 -62.60839844 106.01782227 C-51.40322113 89.69835532 -42.20252384 71.95673707 -32.5625 54.6875 C-27.99321042 46.50434638 -23.35507723 38.39094712 -18.46289062 30.39550781 C-16.52580241 27.22349354 -14.59899874 24.04526049 -12.671875 20.8671875 C-8.45186845 13.90905365 -4.22705306 6.95385533 0 0 Z " fill="#000000" transform="translate(390,380)"/>
<path d="M0 0 C1.5428492 -0.00143509 1.5428492 -0.00143509 3.11686707 -0.00289917 C5.27932802 -0.00357693 7.44179105 -0.00175096 9.60424805 0.00244141 C12.92436228 0.00782286 16.24434292 0.00246868 19.56445312 -0.00390625 C21.66796905 -0.00324593 23.77148489 -0.00196574 25.875 0 C26.87078568 -0.00202423 27.86657135 -0.00404846 28.89253235 -0.00613403 C30.26987801 -0.00140579 30.26987801 -0.00140579 31.67504883 0.00341797 C32.48444412 0.00421356 33.29383942 0.00500916 34.12776184 0.00582886 C36.10546875 0.1328125 36.10546875 0.1328125 38.10546875 1.1328125 C38.10546875 1.7928125 38.10546875 2.4528125 38.10546875 3.1328125 C44.37546875 3.4628125 50.64546875 3.7928125 57.10546875 4.1328125 C57.10546875 4.4628125 57.10546875 4.7928125 57.10546875 5.1328125 C29.38546875 5.1328125 1.66546875 5.1328125 -26.89453125 5.1328125 C-26.89453125 4.8028125 -26.89453125 4.4728125 -26.89453125 4.1328125 C-22.93453125 4.1328125 -18.97453125 4.1328125 -14.89453125 4.1328125 C-14.89453125 3.4728125 -14.89453125 2.8128125 -14.89453125 2.1328125 C-15.88453125 1.8028125 -16.87453125 1.4728125 -17.89453125 1.1328125 C-11.90391195 0.08794307 -6.07262379 -0.01247117 0 0 Z " fill="#D90E07" transform="translate(474.89453125,640.8671875)"/>
<path d="M0 0 C0.70125 0.45890625 1.4025 0.9178125 2.125 1.390625 C7.62549521 4.94801049 13.07504446 8.20520965 19 11 C18.67 11.66 18.34 12.32 18 13 C17.01 13.33 16.02 13.66 15 14 C15.99 14.66 16.98 15.32 18 16 C16.68 16.33 15.36 16.66 14 17 C14.99 17.33 15.98 17.66 17 18 C16.45276317 21.37462715 15.9451 23.08235 14 26 C0 2.8496732 0 2.8496732 0 0 Z " fill="#E9120B" transform="translate(518,583)"/>
<path d="M0 0 C0.9590625 0.556875 0.9590625 0.556875 1.9375 1.125 C2.5975 1.455 3.2575 1.785 3.9375 2.125 C3.9375 1.465 3.9375 0.805 3.9375 0.125 C6.99019846 -1.40134923 9.69595689 -0.71294444 13.0625 -0.4375 C14.34382813 -0.33566406 15.62515625 -0.23382812 16.9453125 -0.12890625 C17.93273437 -0.04511719 18.92015625 0.03867187 19.9375 0.125 C16.1875 3.125 16.1875 3.125 13.9375 3.125 C13.9375 3.785 13.9375 4.445 13.9375 5.125 C15.030625 4.898125 16.12375 4.67125 17.25 4.4375 C20.9375 4.125 20.9375 4.125 22.875 5.5625 C23.225625 6.078125 23.57625 6.59375 23.9375 7.125 C19.66378408 9.26185796 13.34862566 6.36052547 8.875 5.3125 C7.65232422 5.03857422 6.42964844 4.76464844 5.16992188 4.48242188 C4.00912109 4.21365234 2.84832031 3.94488281 1.65234375 3.66796875 C0.58105225 3.42071045 -0.49023926 3.17345215 -1.59399414 2.91870117 C-2.40860107 2.65677979 -3.22320801 2.3948584 -4.0625 2.125 C-4.3925 1.465 -4.7225 0.805 -5.0625 0.125 C-2.0625 -0.875 -2.0625 -0.875 0 0 Z " fill="#F1251F" transform="translate(354.0625,921.875)"/>
<path d="M0 0 C0.66 0.66 1.32 1.32 2 2 C-0.18367633 6.53656743 -2.37090721 11.07139798 -4.5612793 15.60473633 C-5.30409236 17.14334002 -6.04597534 18.68239314 -6.78686523 20.22192383 C-10.66002782 28.26859538 -14.53528238 36.25939489 -19 44 C-19.66 44 -20.32 44 -21 44 C-19.57463018 38.72613165 -17.03563324 34.29203455 -14.33984375 29.5859375 C-13.17417391 27.33616072 -12.47000349 25.47187023 -12 23 C-11.34 23 -10.68 23 -10 23 C-9.649375 21.80375 -9.29875 20.6075 -8.9375 19.375 C-6.69896966 12.5833424 -3.28640655 6.32970905 0 0 Z " fill="#EE4D4A" transform="translate(898,656)"/>
<path d="M0 0 C0.33 0 0.66 0 1 0 C1.16798051 2.27073652 1.33434113 4.54159293 1.5 6.8125 C1.5928125 8.07707031 1.685625 9.34164063 1.78125 10.64453125 C2.07680483 15.17813128 1.60295878 18.75044926 0.578125 23.171875 C-0.55902748 28.73470198 -1.24778185 34.3743685 -2 40 C-2.33 40 -2.66 40 -3 40 C-3.27720435 31.38869827 -2.40875573 22.92380945 -1.5 14.375 C-1.355003 12.97530859 -1.21046844 11.57556919 -1.06640625 10.17578125 C-0.71546571 6.783356 -0.35988674 3.39148585 0 0 Z " fill="#FC3932" transform="translate(3,407)"/>
<path d="M0 0 C0.66 0 1.32 0 2 0 C0.29547635 4.9274448 -2.39474307 9.15510503 -5.125 13.5625 C-5.61347412 14.35446777 -6.10194824 15.14643555 -6.60522461 15.96240234 C-16.12042218 31.31933662 -16.12042218 31.31933662 -19 35 C-19.66 35 -20.32 35 -21 35 C-19.74485428 31.56329147 -18.31813189 28.8562203 -16.125 25.9375 C-11.66711784 19.7643228 -7.89329219 13.19556678 -4.08837891 6.60522461 C-3.33886963 5.32723999 -3.33886963 5.32723999 -2.57421875 4.0234375 C-2.12651123 3.24919434 -1.67880371 2.47495117 -1.2175293 1.67724609 C-0.81574463 1.12375488 -0.41395996 0.57026367 0 0 Z " fill="#EA3832" transform="translate(874,703)"/>
<path d="M0 0 C2.54250084 2.54250084 2.44228837 3.91067228 2.8515625 7.4453125 C2.98046875 8.52167969 3.109375 9.59804688 3.2421875 10.70703125 C3.43167969 12.39892578 3.43167969 12.39892578 3.625 14.125 C3.7590625 15.26066406 3.893125 16.39632813 4.03125 17.56640625 C4.36188425 20.37679741 4.68445086 23.18788172 5 26 C4.34 26 3.68 26 3 26 C2.67 24.68 2.34 23.36 2 22 C1.34 22.33 0.68 22.66 0 23 C0.06510417 21.01432292 0.13020833 19.02864583 0.1953125 17.04296875 C0.13254462 14.68640281 0.13254462 14.68640281 -2 12 C-1.67 11.67 -1.34 11.34 -1 11 C-0.76636119 9.15108054 -0.58696365 7.29511969 -0.4375 5.4375 C-0.35371094 4.42558594 -0.26992188 3.41367187 -0.18359375 2.37109375 C-0.12300781 1.58863281 -0.06242188 0.80617188 0 0 Z " fill="#F93D35" transform="translate(931,393)"/>
<path d="M0 0 C-0.33 0.66 -0.66 1.32 -1 2 C-3.06640625 2.6328125 -3.06640625 2.6328125 -5.5625 3.125 C-6.38878906 3.29257813 -7.21507812 3.46015625 -8.06640625 3.6328125 C-8.70449219 3.75398437 -9.34257812 3.87515625 -10 4 C-10 4.99 -10 5.98 -10 7 C-10.67546875 6.91621094 -11.3509375 6.83242187 -12.046875 6.74609375 C-12.93890625 6.64425781 -13.8309375 6.54242187 -14.75 6.4375 C-15.63171875 6.33308594 -16.5134375 6.22867187 -17.421875 6.12109375 C-19.92390048 6.00357437 -21.61170284 6.34514433 -24 7 C-25.41534778 7.06456879 -26.83337689 7.08611039 -28.25 7.0625 C-30.10625 7.0315625 -30.10625 7.0315625 -32 7 C-28.96606633 5.33175731 -26.1313273 4.44886143 -22.75390625 3.7109375 C-21.75166016 3.49179688 -20.74941406 3.27265625 -19.71679688 3.046875 C-18.67587891 2.82515625 -17.63496094 2.6034375 -16.5625 2.375 C-15.52544922 2.14554688 -14.48839844 1.91609375 -13.41992188 1.6796875 C-8.85371997 0.69430289 -4.69007002 -0.13864361 0 0 Z " fill="#F92723" transform="translate(383,8)"/>
<path d="M0 0 C0.99 0.495 0.99 0.495 2 1 C2.68603516 3.10131836 2.68603516 3.10131836 3.2890625 5.83984375 C3.50820313 6.82017578 3.72734375 7.80050781 3.953125 8.81054688 C4.17484375 9.84244141 4.3965625 10.87433594 4.625 11.9375 C4.85445312 12.96552734 5.08390625 13.99355469 5.3203125 15.05273438 C7 22.66631789 7 22.66631789 7 25 C6.34 25 5.68 25 5 25 C4.67 23.68 4.34 22.36 4 21 C3.34 21.33 2.68 21.66 2 22 C1.34 21.34 0.68 20.68 0 20 C0.495 18.515 0.495 18.515 1 17 C1.66 17 2.32 17 3 17 C2.34 15.35 1.68 13.7 1 12 C0.67 12 0.34 12 0 12 C0 8.04 0 4.08 0 0 Z " fill="#F83933" transform="translate(923,354)"/>
<path d="M0 0 C0.33 0.99 0.66 1.98 1 3 C0.03125 4.59057617 0.03125 4.59057617 -1.5 6.29296875 C-2.05429687 6.91953369 -2.60859375 7.54609863 -3.1796875 8.19165039 C-3.78039062 8.85028076 -4.38109375 9.50891113 -5 10.1875 C-5.60070312 10.86224365 -6.20140625 11.5369873 -6.8203125 12.23217773 C-8.00893069 13.56631804 -9.20154966 14.89690637 -10.3984375 16.22363281 C-12.28691934 18.31823554 -14.14698469 20.43649583 -16 22.5625 C-16.51691406 23.15160156 -17.03382813 23.74070312 -17.56640625 24.34765625 C-19.75113857 26.86575372 -21.87850811 29.42849468 -24 32 C-24.66 31.34 -25.32 30.68 -26 30 C-25.45472656 29.47792969 -24.90945313 28.95585938 -24.34765625 28.41796875 C-18.4131637 22.62549824 -13.15015242 16.49209354 -8 10 C-6.47923446 8.10411229 -4.95840495 6.20827588 -3.4375 4.3125 C-2.29103301 2.87550532 -1.1449484 1.43820494 0 0 Z " fill="#EB3632" transform="translate(836,759)"/>
<path d="M0 0 C3.63 2.31 7.26 4.62 11 7 C10.01 7.495 10.01 7.495 9 8 C9.33 10.64 9.66 13.28 10 16 C9.34 16 8.68 16 8 16 C6.66141476 13.71125827 5.32898986 11.41930344 4 9.125 C3.6184375 8.47402344 3.236875 7.82304688 2.84375 7.15234375 C0 2.2265625 0 2.2265625 0 0 Z " fill="#E11610" transform="translate(518,583)"/>
<path d="M0 0 C0 0.99 0 1.98 0 3 C-3.93536601 5.14976444 -7.87364558 7.29413478 -11.8125 9.4375 C-12.93205078 10.04916016 -14.05160156 10.66082031 -15.20507812 11.29101562 C-16.27822266 11.87431641 -17.35136719 12.45761719 -18.45703125 13.05859375 C-19.9416687 13.86768188 -19.9416687 13.86768188 -21.45629883 14.69311523 C-24 16 -24 16 -27 17 C-25.61450195 12.84350584 -22.82729177 12.04381731 -19.125 10.1875 C-17.76146217 9.48356971 -16.39818321 8.77913774 -15.03515625 8.07421875 C-14.35598145 7.72665527 -13.67680664 7.3790918 -12.97705078 7.02099609 C-10.14707803 5.55953079 -7.35449999 4.03250586 -4.5625 2.5 C-3.67691406 2.0153125 -2.79132812 1.530625 -1.87890625 1.03125 C-1.25886719 0.6909375 -0.63882813 0.350625 0 0 Z " fill="#ED423B" transform="translate(705,873)"/>
<path d="M0 0 C0.763125 0.350625 1.52625 0.70125 2.3125 1.0625 C5.04759379 2.32360884 5.04759379 2.32360884 8 1 C7.48474397 6.28137429 5.74522883 9.57221156 3 14 C2.67 14 2.34 14 2 14 C1.875 8.25 1.875 8.25 3 6 C2.34 6 1.68 6 1 6 C0.67 4.02 0.34 2.04 0 0 Z " fill="#DD150F" transform="translate(305,280)"/>
<path d="M0 0 C0.99 0.33 1.98 0.66 3 1 C2.95875 2.26714844 2.9175 3.53429687 2.875 4.83984375 C2.875 10.25217959 3.85509205 15.29050831 5 20.5625 C5.19078125 21.47580078 5.3815625 22.38910156 5.578125 23.33007812 C6.04411929 25.55520087 6.51816975 27.77826276 7 30 C6.34 30 5.68 30 5 30 C4.11849219 26.05087541 3.24590166 22.09989794 2.3815918 18.14697266 C2.08619797 16.80202946 1.78835653 15.45762144 1.48803711 14.11376953 C1.05722965 12.18403696 0.63589553 10.25219714 0.21484375 8.3203125 C-0.04176025 7.15773926 -0.29836426 5.99516602 -0.56274414 4.79736328 C-1 2 -1 2 0 0 Z " fill="#F93A33" transform="translate(7,552)"/>
<path d="M0 0 C0.66 0 1.32 0 2 0 C3.87369606 3.57344747 5.72045692 7.16014746 7.5625 10.75 C8.09552734 11.76578125 8.62855469 12.7815625 9.17773438 13.828125 C9.92700195 15.29765625 9.92700195 15.29765625 10.69140625 16.796875 C11.15748291 17.69760742 11.62355957 18.59833984 12.10375977 19.52636719 C13.08324182 22.22974834 13.01615584 23.35853389 12 26 C11.70754395 25.40985107 11.41508789 24.81970215 11.11376953 24.21166992 C9.78628294 21.53589716 8.4556783 18.86168684 7.125 16.1875 C6.66480469 15.25873047 6.20460938 14.32996094 5.73046875 13.37304688 C5.28574219 12.48037109 4.84101562 11.58769531 4.3828125 10.66796875 C3.97434082 9.84578857 3.56586914 9.0236084 3.14501953 8.17651367 C1.94758429 5.80922565 1.94758429 5.80922565 0 3 C0 2.01 0 1.02 0 0 Z " fill="#E60300" transform="translate(882,249)"/>
<path d="M0 0 C0 0.66 0 1.32 0 2 C3.68266103 1.40049704 7.34543185 0.75241109 11 0 C1.57142857 8 1.57142857 8 -3 8 C-3.66 5.69 -4.32 3.38 -5 1 C-2 0 -2 0 0 0 Z " fill="#EA241F" transform="translate(709,866)"/>
<path d="M0 0 C0.99 0.33 1.98 0.66 3 1 C3 1.66 3 2.32 3 3 C4.32 3.33 5.64 3.66 7 4 C6.01 4.495 6.01 4.495 5 5 C8.3 5.99 11.6 6.98 15 8 C14.34 8.66 13.68 9.32 13 10 C10.18455608 9.21776638 7.37295854 8.42477877 4.5625 7.625 C3.76005859 7.40328125 2.95761719 7.1815625 2.13085938 6.953125 C1.36708984 6.73398437 0.60332031 6.51484375 -0.18359375 6.2890625 C-0.89056396 6.09006348 -1.59753418 5.89106445 -2.32592773 5.68603516 C-4 5 -4 5 -5 3 C-3.02 3 -1.04 3 1 3 C0.67 2.01 0.34 1.02 0 0 Z " fill="#F22E28" transform="translate(333,913)"/>
<path d="M0 0 C1.32 0.99 2.64 1.98 4 3 C3.1875 5.9375 3.1875 5.9375 2 9 C1.01 9.33 0.02 9.66 -1 10 C-2.22445284 11.62948064 -2.22445284 11.62948064 -3.1875 13.5625 C-3.785625 14.696875 -4.38375 15.83125 -5 17 C-5.33 16.34 -5.66 15.68 -6 15 C-5.09239638 12.40267775 -4.12932108 9.90549025 -3.0625 7.375 C-2.77181641 6.66859375 -2.48113281 5.9621875 -2.18164062 5.234375 C-1.46132512 3.48672427 -0.73154306 1.74298085 0 0 Z " fill="#E81F1C" transform="translate(35,289)"/>
<path d="M0 0 C0.66 0 1.32 0 2 0 C2.99 3.3 3.98 6.6 5 10 C4.01 10 3.02 10 2 10 C1.34 10.66 0.68 11.32 0 12 C-0.66 12 -1.32 12 -2 12 C-1 3.42857143 -1 3.42857143 0 0 Z " fill="#F11F19" transform="translate(915,328)"/>
<path d="M0 0 C3.99500618 1.3697164 6.80009492 3.25722422 10 6 C8.68 6.33 7.36 6.66 6 7 C6.66 7.66 7.32 8.32 8 9 C7.01 9 6.02 9 5 9 C4.67 7.68 4.34 6.36 4 5 C2.68 4.67 1.36 4.34 0 4 C-0.33 4.66 -0.66 5.32 -1 6 C-1.66 5.34 -2.32 4.68 -3 4 C-2.34 4 -1.68 4 -1 4 C-0.67 2.68 -0.34 1.36 0 0 Z " fill="#EB1C19" transform="translate(709,66)"/>
<path d="M0 0 C1.61648438 0.04060547 1.61648438 0.04060547 3.265625 0.08203125 C4.08546875 0.11683594 4.9053125 0.15164063 5.75 0.1875 C5.42 0.8475 5.09 1.5075 4.75 2.1875 C2.41752185 2.81602934 0.05708533 3.34285246 -2.3125 3.8125 C-3.60285156 4.07289063 -4.89320313 4.33328125 -6.22265625 4.6015625 C-7.22167969 4.79492188 -8.22070312 4.98828125 -9.25 5.1875 C-9.58 4.5275 -9.91 3.8675 -10.25 3.1875 C-6.86416198 0.05642164 -4.53890538 -0.14800778 0 0 Z " fill="#F5413D" transform="translate(580.25,922.8125)"/>
<path d="M0 0 C4.62 1.32 9.24 2.64 14 4 C12.02 4.99 12.02 4.99 10 6 C10 5.34 10 4.68 10 4 C9.01 4.33 8.02 4.66 7 5 C5.10529184 5.0685495 3.2083166 5.08480372 1.3125 5.0625 C0.31863281 5.05347656 -0.67523437 5.04445313 -1.69921875 5.03515625 C-2.83810547 5.01775391 -2.83810547 5.01775391 -4 5 C-3.01 4.34 -2.02 3.68 -1 3 C-0.67 2.01 -0.34 1.02 0 0 Z " fill="#F22A27" transform="translate(598,17)"/>
<path d="M0 0 C1.65 0 3.3 0 5 0 C5 0.66 5 1.32 5 2 C5.66 2 6.32 2 7 2 C6.95875 2.928125 6.9175 3.85625 6.875 4.8125 C6.72863661 8.15809719 6.72863661 8.15809719 9 11 C8.34 11.66 7.68 12.32 7 13 C5.83072457 11.02237345 4.66464427 9.04285742 3.5 7.0625 C2.8503125 5.96035156 2.200625 4.85820312 1.53125 3.72265625 C0 1 0 1 0 0 Z " fill="#D81812" transform="translate(584,392)"/>
<path d="M0 0 C3.37368681 3.07513046 5.50901962 6.28518856 7.75 10.25 C8.67039062 11.86648438 8.67039062 11.86648438 9.609375 13.515625 C10.06828125 14.33546875 10.5271875 15.1553125 11 16 C8 16 8 16 5 14 C4.63371323 12.00577205 4.29868656 10.00546689 4 8 C3.34 7.67 2.68 7.34 2 7 C1.26924352 4.6859378 0.59861742 2.35171131 0 0 Z " fill="#D70E0B" transform="translate(464,680)"/>
<path d="M0 0 C0.99 0.33 1.98 0.66 3 1 C3.33 2.65 3.66 4.3 4 6 C3.34 6 2.68 6 2 6 C1.01 7.98 0.02 9.96 -1 12 C-1.99 11.67 -2.98 11.34 -4 11 C-2.68 7.37 -1.36 3.74 0 0 Z " fill="#DA0F07" transform="translate(739,611)"/>
<path d="M0 0 C1.33895632 1.66215268 2.67130142 3.32963607 4 5 C4.86625 6.0828125 4.86625 6.0828125 5.75 7.1875 C7 9 7 9 7 11 C6.01 10.67 5.02 10.34 4 10 C4 9.34 4 8.68 4 8 C2.68 7.67 1.36 7.34 0 7 C0 6.34 0 5.68 0 5 C-0.99 5 -1.98 5 -3 5 C-3 3 -3 3 -1.5 1.375 C-1.005 0.92125 -0.51 0.4675 0 0 Z " fill="#E91D1B" transform="translate(860,210)"/>
<path d="M0 0 C0.66 0.66 1.32 1.32 2 2 C0.68 6.29 -0.64 10.58 -2 15 C-2.66 15 -3.32 15 -4 15 C-5.0326802 12.21176345 -5.04509293 11.1322726 -4.0625 8.25 C-3.711875 7.5075 -3.36125 6.765 -3 6 C-2.34 6 -1.68 6 -1 6 C-0.67 4.02 -0.34 2.04 0 0 Z " fill="#F5413B" transform="translate(919,598)"/>
<path d="M0 0 C0.33 1.32 0.66 2.64 1 4 C0.01 4.495 0.01 4.495 -1 5 C-1 5.99 -1 6.98 -1 8 C-3.31 8.66 -5.62 9.32 -8 10 C-7.44449305 6.40094092 -6.25112752 5.00090201 -3.4375 2.75 C-2.79683594 2.22921875 -2.15617188 1.7084375 -1.49609375 1.171875 C-1.00238281 0.78515625 -0.50867188 0.3984375 0 0 Z " fill="#E80B06" transform="translate(132,143)"/>
<path d="M0 0 C1.32 0 2.64 0 4 0 C5 3 5 3 4.00390625 5.26171875 C3.52824219 6.06222656 3.05257812 6.86273438 2.5625 7.6875 C1.85287109 8.89986328 1.85287109 8.89986328 1.12890625 10.13671875 C0.75636719 10.75160156 0.38382813 11.36648438 0 12 C-0.33 12 -0.66 12 -1 12 C-1.125 7.25 -1.125 7.25 0 5 C-0.66 4.67 -1.32 4.34 -2 4 C-1.34 2.68 -0.68 1.36 0 0 Z " fill="#E11411" transform="translate(213,441)"/>
<path d="M0 0 C0 0.66 0 1.32 0 2 C-2.40383898 3.83022919 -4.79817943 5.52283046 -7.3125 7.1875 C-8.00279297 7.66380859 -8.69308594 8.14011719 -9.40429688 8.63085938 C-10.07138672 9.07623047 -10.73847656 9.52160156 -11.42578125 9.98046875 C-12.03848877 10.39192139 -12.65119629 10.80337402 -13.2824707 11.22729492 C-15 12 -15 12 -18 11 C-17.18015625 10.45730469 -16.3603125 9.91460938 -15.515625 9.35546875 C-14.43796875 8.64003906 -13.3603125 7.92460938 -12.25 7.1875 C-11.18265625 6.47980469 -10.1153125 5.77210938 -9.015625 5.04296875 C-7.21934872 3.82606137 -5.44716858 2.57012591 -3.734375 1.23828125 C-2 0 -2 0 0 0 Z " fill="#EA3C39" transform="translate(738,853)"/>
<path d="M0 0 C2.31 0 4.62 0 7 0 C6.45276317 3.37462715 5.9451 5.08235 4 8 C0 2.25 0 2.25 0 0 Z " fill="#D81712" transform="translate(528,601)"/>
<path d="M0 0 C0.66 0 1.32 0 2 0 C2.75 1.75 2.75 1.75 3 4 C1.1875 6 1.1875 6 -1 8 C-2.23512079 10.13309192 -2.23512079 10.13309192 -3 12 C-3.66 12 -4.32 12 -5 12 C-4.54738642 10.56068883 -4.08767021 9.12361001 -3.625 7.6875 C-3.24214844 6.48673828 -3.24214844 6.48673828 -2.8515625 5.26171875 C-2 3 -2 3 0 0 Z " fill="#E82321" transform="translate(43,272)"/>
<path d="M0 0 C0.33 0.99 0.66 1.98 1 3 C0.34 3 -0.32 3 -1 3 C-0.938125 3.9075 -0.87625 4.815 -0.8125 5.75 C-1.01686856 9.29238832 -1.52653696 10.52653696 -4 13 C-4.66 13 -5.32 13 -6 13 C-5.01 9.37 -4.02 5.74 -3 2 C-2.01 2 -1.02 2 0 2 C0 1.34 0 0.68 0 0 Z " fill="#EE2622" transform="translate(27,316)"/>
<path d="M0 0 C-0.1875 1.8125 -0.1875 1.8125 -1 4 C-3.375 5.5625 -3.375 5.5625 -6 7 C-6.515625 7.53625 -7.03125 8.0725 -7.5625 8.625 C-9.29779613 10.28484848 -10.66471604 10.59736483 -13 11 C-11.83593677 9.83593677 -10.67129061 8.67245135 -9.50390625 7.51171875 C-8.4596661 6.46205398 -7.42652024 5.40128152 -6.40234375 4.33203125 C-2.21437055 0 -2.21437055 0 0 0 Z " fill="#E82724" transform="translate(164,113)"/>
<path d="M0 0 C0.33 0.66 0.66 1.32 1 2 C-0.57643318 3.01084265 -2.1614517 4.00830511 -3.75 5 C-4.63171875 5.556875 -5.5134375 6.11375 -6.421875 6.6875 C-9 8 -9 8 -13 8 C-13 7.34 -13 6.68 -13 6 C-8.71 4.02 -4.42 2.04 0 0 Z " fill="#E83330" transform="translate(267,45)"/>
<path d="M0 0 C0.99 0.33 1.98 0.66 3 1 C4.1875 4.0625 4.1875 4.0625 5 7 C4.01 6.67 3.02 6.34 2 6 C2 5.01 2 4.02 2 3 C1.34 3 0.68 3 0 3 C0 4.65 0 6.3 0 8 C-1.32 7.34 -2.64 6.68 -4 6 C-4 4 -4 4 -2 1.875 C-1.34 1.25625 -0.68 0.6375 0 0 Z " fill="#EB211E" transform="translate(877,240)"/>
<path d="M0 0 C0 0.66 0 1.32 0 2 C0.99 2 1.98 2 3 2 C2.67 2.99 2.34 3.98 2 5 C-2.17587745 6.39195915 -4.13474776 4.82323219 -8 3 C-5.22569089 1.15046059 -3.35957737 0 0 0 Z " fill="#ED221D" transform="translate(320,24)"/>
<path d="M0 0 C1.32 0 2.64 0 4 0 C4.33 0.99 4.66 1.98 5 3 C-1.93 5.97 -1.93 5.97 -9 9 C-9.33 8.34 -9.66 7.68 -10 7 C-6.37 5.35 -2.74 3.7 1 2 C0.67 1.34 0.34 0.68 0 0 Z " fill="#ED3C38" transform="translate(668,890)"/>
<path d="M0 0 C-0.639375 0.28875 -1.27875 0.5775 -1.9375 0.875 C-4.15206079 1.82823451 -4.15206079 1.82823451 -5 4 C-8.63 3.67 -12.26 3.34 -16 3 C-16 2.67 -16 2.34 -16 2 C-13.71022755 1.47090114 -11.41810812 0.95194981 -9.125 0.4375 C-7.84882812 0.14746094 -6.57265625 -0.14257812 -5.2578125 -0.44140625 C-2 -1 -2 -1 0 0 Z " fill="#D00E07" transform="translate(618,729)"/>
<path d="M0 0 C0.99 0 1.98 0 3 0 C1.80100302 3.0831351 0.52299523 6.06279492 -1 9 C-1.66 9 -2.32 9 -3 9 C-3.33 7.02 -3.66 5.04 -4 3 C-2.68 3 -1.36 3 0 3 C0 2.01 0 1.02 0 0 Z " fill="#DA1711" transform="translate(197,473)"/>
<path d="M0 0 C1.65 0 3.3 0 5 0 C4.5020163 3.73487777 4.12508244 5.81237635 2 9 C1.34 9 0.68 9 0 9 C0 6.03 0 3.06 0 0 Z " fill="#E0150E" transform="translate(225,420)"/>
<path d="M0 0 C0.33 0.99 0.66 1.98 1 3 C1.66 3 2.32 3 3 3 C2.8125 4.875 2.8125 4.875 2 7 C-0.4375 8.1875 -0.4375 8.1875 -3 9 C-3.99 9.495 -3.99 9.495 -5 10 C-3.66511872 6.40608886 -2.03977277 3.24509304 0 0 Z " fill="#0F0A0A" transform="translate(301,304)"/>
<path d="M0 0 C0.66 0 1.32 0 2 0 C0.61867539 3.1268791 -0.97903763 5.19920392 -3.4375 7.5625 C-4.03433594 8.14128906 -4.63117187 8.72007812 -5.24609375 9.31640625 C-6.11427734 10.14978516 -6.11427734 10.14978516 -7 11 C-8.00227014 11.9977247 -9.00305341 12.99695588 -10 14 C-10 11 -10 11 -8.3203125 9.0625 C-7.59585938 8.381875 -6.87140625 7.70125 -6.125 7 C-3.69915419 4.704576 -1.86499904 2.79749856 0 0 Z " fill="#EE4A44" transform="translate(821,777)"/>
<path d="M0 0 C0 0.66 0 1.32 0 2 C0.66 2.33 1.32 2.66 2 3 C-1.1749094 4.9078584 -3.10585211 5.1609041 -6.75 4.625 C-7.54921875 4.51414062 -8.3484375 4.40328125 -9.171875 4.2890625 C-9.77515625 4.19367187 -10.3784375 4.09828125 -11 4 C-7.32740617 1.55160412 -4.45351799 0 0 0 Z " fill="#D90F07" transform="translate(637,722)"/>
<path d="M0 0 C0.66 0 1.32 0 2 0 C2.33 1.98 2.66 3.96 3 6 C3.99 6.33 4.98 6.66 6 7 C5.67 8.65 5.34 10.3 5 12 C2.13546142 8.58983503 0.65296434 5.09305456 -1 1 C-0.67 0.67 -0.34 0.34 0 0 Z " fill="#ED413B" transform="translate(48,675)"/>
<path d="M0 0 C2.97 0.495 2.97 0.495 6 1 C6 4 6 7 6 10 C3.25722422 6.80009492 1.3697164 3.99500618 0 0 Z " fill="#D31914" transform="translate(534,611)"/>
<path d="M0 0 C0.99 0.33 1.98 0.66 3 1 C2.33333333 2.33333333 1.66666667 3.66666667 1 5 C0.67 5.721875 0.34 6.44375 0 7.1875 C-1 9 -1 9 -3 10 C-3.66 9.34 -4.32 8.68 -5 8 C-3.35 5.36 -1.7 2.72 0 0 Z " fill="#110304" transform="translate(621,586)"/>
<path d="M0 0 C0.99 0.99 1.98 1.98 3 3 C1.80873219 5.38253561 0.61305574 6.12188876 -1.5625 7.625 C-2.20316406 8.07101562 -2.84382813 8.51703125 -3.50390625 8.9765625 C-3.99761719 9.31429688 -4.49132812 9.65203125 -5 10 C-3.84414715 6.08788267 -2.64465038 3.1254959 0 0 Z " fill="#140C0B" transform="translate(259,374)"/>
<path d="M0 0 C-0.99 0.33 -1.98 0.66 -3 1 C-3 1.66 -3 2.32 -3 3 C-2.01 3 -1.02 3 0 3 C0 3.66 0 4.32 0 5 C-4.455 4.01 -4.455 4.01 -9 3 C-9 2.34 -9 1.68 -9 1 C-5.8035914 -0.06546953 -3.34252724 -0.07427838 0 0 Z " fill="#F10902" transform="translate(347,17)"/>
<path d="M0 0 C0.33 0.66 0.66 1.32 1 2 C1.66 2 2.32 2 3 2 C2.34 3.32 1.68 4.64 1 6 C0.01 6 -0.98 6 -2 6 C-2 7.32 -2 8.64 -2 10 C-2.99 10 -3.98 10 -5 10 C-3.66511872 6.40608886 -2.03977277 3.24509304 0 0 Z " fill="#D31A15" transform="translate(340,684)"/>
<path d="M0 0 C0.33 0.99 0.66 1.98 1 3 C1.66 3 2.32 3 3 3 C1.86695008 6.39914975 0.87481525 7.05254451 -2 9 C-2.66 8.67 -3.32 8.34 -4 8 C-2.87548273 5.0280615 -1.77706209 2.66559313 0 0 Z " fill="#D51812" transform="translate(356,658)"/>
<path d="M0 0 C0.33 0 0.66 0 1 0 C1 3.63 1 7.26 1 11 C0.67 10.34 0.34 9.68 0 9 C-1.32 9.33 -2.64 9.66 -4 10 C-2.68 6.7 -1.36 3.4 0 0 Z " fill="#D60E07" transform="translate(732,628)"/>
<path d="M0 0 C0.66 0 1.32 0 2 0 C2.33 1.98 2.66 3.96 3 6 C2.34 6 1.68 6 1 6 C0.67 6.99 0.34 7.98 0 9 C-1.32 6.36 -2.64 3.72 -4 1 C-3.01 1.33 -2.02 1.66 -1 2 C-0.67 1.34 -0.34 0.68 0 0 Z " fill="#D91915" transform="translate(572,365)"/>
<path d="M0 0 C2.64 1.65 5.28 3.3 8 5 C6.68 6.65 5.36 8.3 4 10 C3.32845067 8.71086513 2.66291141 7.41859796 2 6.125 C1.62875 5.40570312 1.2575 4.68640625 0.875 3.9453125 C0 2 0 2 0 0 Z " fill="#D42520" transform="translate(518,583)"/>
<path d="M0 0 C0.33 0.66 0.66 1.32 1 2 C2.65 1.67 4.3 1.34 6 1 C6.625 3.375 6.625 3.375 7 6 C6.34 6.66 5.68 7.32 5 8 C4.67 7.01 4.34 6.02 4 5 C1.99983534 3.79117904 1.99983534 3.79117904 0 3 C0 2.01 0 1.02 0 0 Z " fill="#EC211D" transform="translate(810,151)"/>
<path d="M0 0 C1.60332791 -0.08121924 3.20784026 -0.13929134 4.8125 -0.1875 C6.15248047 -0.23970703 6.15248047 -0.23970703 7.51953125 -0.29296875 C10.41647515 0.04918998 11.22555028 0.75393573 13 3 C10.30864154 4.34567923 8.86123106 3.77224621 5.9375 3.1875 C5.03902344 3.01605469 4.14054687 2.84460938 3.21484375 2.66796875 C2.48394531 2.44753906 1.75304687 2.22710938 1 2 C0.67 1.34 0.34 0.68 0 0 Z " fill="#F83B30" transform="translate(365,926)"/>
<path d="M0 0 C0 2 0 2 -1.1875 3.6875 C-3 5 -3 5 -5.6875 4.6875 C-6.450625 4.460625 -7.21375 4.23375 -8 4 C-8 3.01 -8 2.02 -8 1 C-5.07175348 0.02391783 -3.04386724 -0.08226668 0 0 Z " fill="#E71910" transform="translate(280,892)"/>
<path d="M0 0 C0.66 0.99 1.32 1.98 2 3 C0.25 5.9375 0.25 5.9375 -2 9 C-3.32 9.33 -4.64 9.66 -6 10 C-4.02 6.7 -2.04 3.4 0 0 Z " fill="#140F0D" transform="translate(279,341)"/>
<path d="M0 0 C1.32 0.33 2.64 0.66 4 1 C2.63016497 4.16115776 2.0109362 4.9927092 -1 7 C-1.99 6.34 -2.98 5.68 -4 5 C-2.68 3.35 -1.36 1.7 0 0 Z " fill="#E91D18" transform="translate(123,151)"/>
<path d="M0 0 C1.65 0.33 3.3 0.66 5 1 C5 1.99 5 2.98 5 4 C5.66 4 6.32 4 7 4 C7.33 4.99 7.66 5.98 8 7 C4.54074837 5.7508258 1.85306797 4.32472205 -1 2 C-0.67 1.34 -0.34 0.68 0 0 Z " fill="#EA221D" transform="translate(236,874)"/>
<path d="M0 0 C0.99 0.66 1.98 1.32 3 2 C2.01 4.97 1.02 7.94 0 11 C-2 7 -2 7 -1.6875 4.9375 C-1.460625 4.298125 -1.23375 3.65875 -1 3 C-0.67 2.01 -0.34 1.02 0 0 Z " fill="#E71A12" transform="translate(44,658)"/>
<path d="M0 0 C0.33 0.99 0.66 1.98 1 3 C1.66 3 2.32 3 3 3 C3.33 5.64 3.66 8.28 4 11 C3.34 11 2.68 11 2 11 C1.67 9.68 1.34 8.36 1 7 C0.01 7.495 0.01 7.495 -1 8 C-0.67 5.36 -0.34 2.72 0 0 Z " fill="#F42E2A" transform="translate(932,408)"/>
<path d="M0 0 C0.99 0.495 0.99 0.495 2 1 C3.36817102 7.04275534 3.36817102 7.04275534 2.0625 10.4375 C1.711875 10.953125 1.36125 11.46875 1 12 C0.67 12 0.34 12 0 12 C0 8.04 0 4.08 0 0 Z " fill="#F72923" transform="translate(923,354)"/>
<path d="M0 0 C0.33 0.66 0.66 1.32 1 2 C0.51789063 2.32613281 0.03578125 2.65226562 -0.4609375 2.98828125 C-1.09257812 3.42527344 -1.72421875 3.86226563 -2.375 4.3125 C-3.00148437 4.74175781 -3.62796875 5.17101562 -4.2734375 5.61328125 C-6.26378845 7.06920339 -6.26378845 7.06920339 -8 10 C-8.66 9.67 -9.32 9.34 -10 9 C-8.90344712 7.68113228 -7.79746577 6.37009943 -6.6875 5.0625 C-6.07261719 4.33160156 -5.45773438 3.60070312 -4.82421875 2.84765625 C-3 1 -3 1 0 0 Z " fill="#E30101" transform="translate(153,123)"/>
<path d="M0 0 C0.66 0.66 1.32 1.32 2 2 C1.625 4.625 1.625 4.625 1 7 C0.01 6.67 -0.98 6.34 -2 6 C-3.1875 3.4375 -3.1875 3.4375 -4 1 C-2.125 0.375 -2.125 0.375 0 0 Z " fill="#DF1511" transform="translate(532,299)"/>
<path d="M0 0 C0.33 1.32 0.66 2.64 1 4 C-1.97 3.505 -1.97 3.505 -5 3 C-2.25 0 -2.25 0 0 0 Z M-7 3 C-6.34 3.33 -5.68 3.66 -5 4 C-6.8125 5.5625 -6.8125 5.5625 -9 7 C-9.99 6.67 -10.98 6.34 -12 6 C-9.625 4.4375 -9.625 4.4375 -7 3 Z " fill="#E92B29" transform="translate(231,65)"/>
<path d="M0 0 C1.09658936 3.28976808 0.79953138 4.71303767 0 8 C-1.32 8 -2.64 8 -4 8 C-2.87548273 5.0280615 -1.77706209 2.66559313 0 0 Z " fill="#170E0E" transform="translate(183,502)"/>
<path d="M0 0 C3.74281699 2.38179263 6.97727468 4.74475735 10 8 C6.51669784 7.35494404 3.90567134 6.01782732 1 4 C1 3.34 1 2.68 1 2 C0.34 1.67 -0.32 1.34 -1 1 C-0.67 0.67 -0.34 0.34 0 0 Z " fill="#EB2723" transform="translate(760,101)"/>
<path d="M0 0 C-0.33 0.99 -0.66 1.98 -1 3 C-5.75 2.125 -5.75 2.125 -8 1 C-8 0.34 -8 -0.32 -8 -1 C-4.37673261 -2.2077558 -3.35853631 -1.54311128 0 0 Z " fill="#EB1F1D" transform="translate(304,33)"/>
<path d="M0 0 C0.66 0 1.32 0 2 0 C2 0.66 2 1.32 2 2 C1.34 2 0.68 2 0 2 C0 1.34 0 0.68 0 0 Z M-2 0 C0 3.75 0 3.75 0 6 C-1.9375 5.1875 -1.9375 5.1875 -4 4 C-4.33 3.01 -4.66 2.02 -5 1 C-4.01 0.67 -3.02 0.34 -2 0 Z " fill="#0C0305" transform="translate(501,728)"/>
<path d="M0 0 C0.66 0 1.32 0 2 0 C1.67 0.66 1.34 1.32 1 2 C0.67 1.34 0.34 0.68 0 0 Z M-2 1 C-1.01 1.66 -0.02 2.32 1 3 C-1.22189824 5.22189824 -3.08482708 5.92598892 -6 7 C-6 5.68 -6 4.36 -6 3 C-5.01 3 -4.02 3 -3 3 C-2.67 2.34 -2.34 1.68 -2 1 Z " fill="#DC160C" transform="translate(333,703)"/>
<path d="M0 0 C-0.49831724 3.68754757 -1.10067643 5.60490662 -4 8 C-4.66 7.67 -5.32 7.34 -6 7 C-6 6.34 -6 5.68 -6 5 C-5.34 4.67 -4.68 4.34 -4 4 C-4 3.01 -4 2.02 -4 1 C-2 0 -2 0 0 0 Z " fill="#D91814" transform="translate(150,556)"/>
<path d="M0 0 C0.66 0.33 1.32 0.66 2 1 C0.7508258 4.45925163 -0.67527795 7.14693203 -3 10 C-2.25 2.25 -2.25 2.25 0 0 Z " fill="#D41814" transform="translate(287,323)"/>
<path d="M0 0 C1.1875 1.6875 1.1875 1.6875 2 4 C0.625 6.75 0.625 6.75 -1 9 C-1.66 8.67 -2.32 8.34 -3 8 C-1.125 2.25 -1.125 2.25 0 0 Z " fill="#E71C1B" transform="translate(58,241)"/>
<path d="M0 0 C-0.33 0.66 -0.66 1.32 -1 2 C-0.34 2.66 0.32 3.32 1 4 C-2.20062687 5.60031344 -4.72271806 4.03173691 -8 3 C-5.53387212 -0.1151089 -3.89156016 -0.31553191 0 0 Z " fill="#E81A14" transform="translate(736,82)"/>
<path d="M0 0 C2.52588702 2.36292656 3.88820837 3.66462511 5 7 C4.34 7.66 3.68 8.32 3 9 C2.71125 8.360625 2.4225 7.72125 2.125 7.0625 C1.17176549 4.84793921 1.17176549 4.84793921 -1 4 C-0.67 2.68 -0.34 1.36 0 0 Z " fill="#D10F07" transform="translate(453,663)"/>
<path d="M0 0 C0.99 0.33 1.98 0.66 3 1 C1.92598892 3.91517292 1.22189824 5.77810176 -1 8 C-1 6.68 -1 5.36 -1 4 C-1.66 4 -2.32 4 -3 4 C-2 2 -2 2 0 0 Z " fill="#DB1610" transform="translate(251,381)"/>
<path d="M0 0 C1.33332095 2.6666419 0.67102033 4.16680303 0 7 C-0.66 7 -1.32 7 -2 7 C-2 7.99 -2 8.98 -2 10 C-2.66 10 -3.32 10 -4 10 C-3.52449439 8.51965236 -3.04448784 7.04074979 -2.5625 5.5625 C-2.29566406 4.73878906 -2.02882813 3.91507812 -1.75390625 3.06640625 C-1 1 -1 1 0 0 Z " fill="#E60200" transform="translate(29,308)"/>
<path d="M0 0 C2.31 0.66 4.62 1.32 7 2 C7 2.66 7 3.32 7 4 C4.69 4 2.38 4 0 4 C0 2.68 0 1.36 0 0 Z " fill="#E61712" transform="translate(780,121)"/>
<path d="M0 0 C0.99 1.32 1.98 2.64 3 4 C0 6 0 6 -2.6875 5.625 C-3.450625 5.41875 -4.21375 5.2125 -5 5 C-3.35 3.35 -1.7 1.7 0 0 Z " fill="#E91A15" transform="translate(581,584)"/>
<path d="M0 0 C2.4375 0.75 2.4375 0.75 5 2 C5.9375 4 5.9375 4 6 6 C5.34 6.66 4.68 7.32 4 8 C2.68 5.36 1.36 2.72 0 0 Z " fill="#CF1D16" transform="translate(573,374)"/>
<path d="M0 0 C0.66 0.66 1.32 1.32 2 2 C0.68 4.31 -0.64 6.62 -2 9 C-4 6 -4 6 -4 4 C-3.34 4 -2.68 4 -2 4 C-1.34 2.68 -0.68 1.36 0 0 Z " fill="#D01C17" transform="translate(267,357)"/>
<path d="M0 0 C3.08089673 2.77280706 4.68775452 5.06326356 6 9 C3 8 3 8 1.3125 5.625 C0 3 0 3 0 0 Z " fill="#E8211C" transform="translate(867,222)"/>
<path d="M0 0 C1.17539996 0.92652701 2.34010577 1.86663387 3.5 2.8125 C4.1496875 3.33457031 4.799375 3.85664062 5.46875 4.39453125 C7 6 7 6 7 9 C4.36 6.69 1.72 4.38 -1 2 C-0.67 1.34 -0.34 0.68 0 0 Z " fill="#E60502" transform="translate(776,114)"/>
<path d="M0 0 C1.65 1.32 3.3 2.64 5 4 C4.67 4.99 4.34 5.98 4 7 C2 5.75 2 5.75 0 4 C0 2.68 0 1.36 0 0 Z " fill="#E71F17" transform="translate(143,804)"/>
<path d="M0 0 C0.33 0 0.66 0 1 0 C0.67 2.31 0.34 4.62 0 7 C-0.99 7 -1.98 7 -3 7 C-1.125 1.125 -1.125 1.125 0 0 Z " fill="#CB1D16" transform="translate(325,709)"/>
<path d="M0 0 C0.66 0.33 1.32 0.66 2 1 C0.68 3.64 -0.64 6.28 -2 9 C-2.66 9 -3.32 9 -4 9 C-2.94124926 5.59687262 -1.99097846 2.98646769 0 0 Z " fill="#EB3A35" transform="translate(881,691)"/>
<path d="M0 0 C0.33 0.66 0.66 1.32 1 2 C1.66 2.33 2.32 2.66 3 3 C2.34 3 1.68 3 1 3 C1 3.66 1 4.32 1 5 C-1.5 6.625 -1.5 6.625 -4 8 C-2.87548273 5.0280615 -1.77706209 2.66559313 0 0 Z " fill="#E2DED6" transform="translate(180,576)"/>
<path d="M0 0 C0.66 0.66 1.32 1.32 2 2 C2.66 1.67 3.32 1.34 4 1 C4.33 2.32 4.66 3.64 5 5 C3.02 5.33 1.04 5.66 -1 6 C-0.67 4.02 -0.34 2.04 0 0 Z " fill="#E8261F" transform="translate(594,561)"/>
<path d="M0 0 C1.32 1.65 2.64 3.3 4 5 C3.67 5.66 3.34 6.32 3 7 C2.01 7 1.02 7 0 7 C-1.125 2.25 -1.125 2.25 0 0 Z " fill="#0F0A0A" transform="translate(532,308)"/>
<path d="M0 0 C2.475 0.99 2.475 0.99 5 2 C5.66 1.34 6.32 0.68 7 0 C7.33 0.99 7.66 1.98 8 3 C7.67 3.66 7.34 4.32 7 5 C4.625 4.75 4.625 4.75 2 4 C0.6875 1.9375 0.6875 1.9375 0 0 Z " fill="#EB1B16" transform="translate(843,194)"/>
<path d="M0 0 C1.32 0.33 2.64 0.66 4 1 C2.92598892 3.91517292 2.22189824 5.77810176 0 8 C0 5.36 0 2.72 0 0 Z " fill="#D51A12" transform="translate(362,191)"/>
<path d="M0 0 C1.32 0 2.64 0 4 0 C4 0.66 4 1.32 4 2 C3.34 2 2.68 2 2 2 C1.67 3.65 1.34 5.3 1 7 C-1 4 -1 4 -0.625 1.8125 C-0.41875 1.214375 -0.2125 0.61625 0 0 Z " fill="#EE2923" transform="translate(27,624)"/>
<path d="M0 0 C0.66 0 1.32 0 2 0 C1.34 2.97 0.68 5.94 0 9 C-0.33 7.68 -0.66 6.36 -1 5 C-1.66 4.67 -2.32 4.34 -3 4 C-1.625 2 -1.625 2 0 0 Z " fill="#EB1D18" transform="translate(590,573)"/>
<path d="M0 0 C0.99 0 1.98 0 3 0 C2.67 1.32 2.34 2.64 2 4 C0.68 4.33 -0.64 4.66 -2 5 C-1.34 3.35 -0.68 1.7 0 0 Z " fill="#EA1711" transform="translate(593,567)"/>
<path d="M0 0 C0.66 0 1.32 0 2 0 C2.33 2.31 2.66 4.62 3 7 C2.01 7 1.02 7 0 7 C-0.93423645 3.98968256 -1.04449911 3.13349732 0 0 Z " fill="#D61913" transform="translate(595,405)"/>
<path d="M0 0 C0.66 0.99 1.32 1.98 2 3 C0.35 4.98 -1.3 6.96 -3 9 C-3.66 8.67 -4.32 8.34 -5 8 C-3.35 5.36 -1.7 2.72 0 0 Z " fill="#15110D" transform="translate(292,319)"/>
<path d="M0 0 C2.88437779 1.29299694 4.87219421 2.65941363 7 5 C6.67 5.99 6.34 6.98 6 8 C5.38125 7.195625 4.7625 6.39125 4.125 5.5625 C2.25835959 2.96125481 2.25835959 2.96125481 0 2 C0 1.34 0 0.68 0 0 Z " fill="#E40501" transform="translate(816,155)"/>
<path d="M0 0 C0.66 0.33 1.32 0.66 2 1 C0.02 3.31 -1.96 5.62 -4 8 C-4.33 7.01 -4.66 6.02 -5 5 C-3.35 3.35 -1.7 1.7 0 0 Z " fill="#E30000" transform="translate(129,145)"/>
<path d="M0 0 C1.11375 0.3403125 1.11375 0.3403125 2.25 0.6875 C-0.4355594 3.3730594 -3.12621328 3.74799974 -6.75 4.6875 C-6.75 2.6875 -6.75 2.6875 -5.0625 1 C-2.75 -0.3125 -2.75 -0.3125 0 0 Z " fill="#E7221E" transform="translate(193.75,90.3125)"/>
</svg>
